PathFileType	4	(X/Y/Z)	pose2sim_0-881.trc
DataRate	CameraRate	NumFrames	NumMarkers	Units	OrigDataRate	OrigDataStartFrame	OrigNumFrames
50	50	8	22	m	50	0	882
Frame#	Time	Hip			RHip			RKnee			RAnkle			RBigToe			RSmallToe			RHeel			LHip			LKnee			LAnkle			LBigToe			LSmallToe			LHeel			Neck			Head			Nose			RShoulder			RElbow			RWrist			LShoulder			LElbow			LWrist			
		X1	Y1	Z1	X2	Y2	Z2	X3	Y3	Z3	X4	Y4	Z4	X5	Y5	Z5	X6	Y6	Z6	X7	Y7	Z7	X8	Y8	Z8	X9	Y9	Z9	X10	Y10	Z10	X11	Y11	Z11	X12	Y12	Z12	X13	Y13	Z13	X14	Y14	Z14	X15	Y15	Z15	X16	Y16	Z16	X17	Y17	Z17	X18	Y18	Z18	X19	Y19	Z19	X20	Y20	Z20	X21	Y21	Z21	X22	Y22	Z22	
0	0.0	0.132159490755764	0.9756561431715729	-0.04789781866461557	0.028231926144787315	0.9553689641523132	-0.03850661811037534	0.013465940876957152	0.5207958363587272	-0.07488578227757048	0.0022155796466549115	0.0969159590219828	-0.08650149948472816	-0.00040656646544909634	0.04385005415896948	0.11427849049873152	-0.0507348922824797	0.04236318646397139	0.060846886291520984	0.007878717726972606	0.04634576333308278	-0.1309941542495206	0.23477210415319028	0.9538861524408234	-0.055465445833781754	0.24163965351929195	0.5187270234590584	-0.1129948884842353	0.24335345001351674	0.09747343937875134	-0.11167575092191609	0.28845895364487906	0.04152578595352516	0.07177071664535821	0.3225499017490819	0.04028402303825325	0.009916214763606455	0.22850990292991996	0.04852906130205562	-0.141368788815283	0.14683365450380942	1.578034469493315	-0.05590057948745695	0.14941198099388445	1.8212111061347334	-0.022384010285265456	0.15688929522511147	1.6991558273368224	0.05812051489179858	-0.019842562585250755	1.4711992545097985	-0.04229439323483601	-0.07059694070942381	1.1877570768053167	-0.03643155713240809	-0.1335346385794983	0.9389827640212497	-0.0006597722294289832	0.3181038707002333	1.4706392131365777	-0.08826272338089036	0.3549455012284903	1.1892065460890489	-0.08904411543299305	0.40137824718146303	0.9414288243916024	-0.06809592715752587
1	0.02	0.1327926470250096	0.968785045415808	-0.04685117735716054	0.02466745656447953	0.9552980308167455	-0.04046990186941875	0.013201741737016189	0.517386356125925	-0.06714165340243222	0.0023631205378663927	0.09081092155408033	-0.08315692176009554	-0.00225591566762805	0.043927398838128136	0.09079336345806882	-0.053814695540252575	0.043816871291825495	0.03736580487396143	0.013148216577807615	0.04813577291993044	-0.11742042571714593	0.24092019684814225	0.9550737825670027	-0.06348651628997971	0.24089421304773537	0.517340859906405	-0.1072869797672926	0.2455529947979491	0.09483089702487613	-0.11225930810708301	0.290185175804739	0.04166167364200518	0.04820900294473676	0.33024925768979435	0.04561439853605027	-0.01276840069698318	0.2333467878642122	0.04933975738009845	-0.14844411865113913	0.14665955697836233	1.581257700793516	-0.05798795159153112	0.1477015373461416	1.823900336702653	-0.01593517117335114	0.15275459175663014	1.6940365923861385	0.0842291385831206	-0.01985164410581407	1.4724193001524186	-0.05038007408493855	-0.06993367400340753	1.1889359253998981	-0.0385611307495662	-0.13004010248404058	0.9408379371998499	0.008691314352778534	0.3174248044951483	1.4739120045488279	-0.07980396906398164	0.3563227597996305	1.1930790381788572	-0.08780637909882782	0.4039840064326163	0.9436274849343578	-0.07364092769670683
2	0.04	0.1356604402027557	0.9715043309420716	-0.046784382523121275	0.027932977517946135	0.9594756788627646	-0.04053795936275613	0.011684790429976248	0.5220195661951167	-0.07154220683522604	0.003837139762337135	0.09393588894759584	-0.08426176371010631	0.00020959146337867825	0.0399417541426332	0.08300211529071301	-0.05261728080996646	0.0442462881764745	0.032529095366840746	0.011800312310174208	0.05154661217228323	-0.12189933120157255	0.2418017186584385	0.9562841684474306	-0.05819666598986424	0.24287746308822558	0.5201413424122352	-0.10538576013088538	0.24641230427391722	0.09635018192275595	-0.11340063553291357	0.2885022669844319	0.040536722678640266	0.05489531855284177	0.3298696685216339	0.042470900595320674	-0.009648770017787684	0.23195441304928802	0.05072081246912579	-0.1458592159203756	0.14398150693570777	1.5801376221086347	-0.05138720900182208	0.14443601629430286	1.821988354719485	-0.022348814217860603	0.15361080098348084	1.6951915648503821	0.0816245820778785	-0.020512183831208543	1.4718037356200653	-0.04300767949075149	-0.07185461459123856	1.1924221513817133	-0.03482736424083041	-0.1305373902721169	0.9449949158365799	0.00737296614701341	0.3193232707011386	1.4745703680207485	-0.0835535393589014	0.3569246612748928	1.194899835487712	-0.08776447851939397	0.4061542706761557	0.9477449787717652	-0.06827525434475192
3	0.06	0.13346086115586808	0.9722609337829407	-0.04633996162247367	0.027469096584987474	0.9602190430120133	-0.03639649549895157	0.010942592458741447	0.5219507018422697	-0.0718142635117869	0.0036404109547996054	0.09448262010636274	-0.08209572356339678	0.002439872229452006	0.04018191390390824	0.08327464173192943	-0.053373454421494035	0.04333958065089637	0.029052355164124355	0.011275175158708612	0.05064404776827155	-0.1223334697468519	0.24125512421730302	0.9557878715093386	-0.05395198900426431	0.243952518982701	0.5199438510660809	-0.10114363159150463	0.24567038250396217	0.09526530994335394	-0.11024738242746976	0.28472898788288037	0.04059903799723113	0.059506516035056994	0.3288778960130108	0.041364441257131804	-0.006869388626083207	0.23444616486913428	0.04827816718544686	-0.14667423173564512	0.14617647168846276	1.580158490649457	-0.0529494147194882	0.14657653231605972	1.824428162108977	-0.024398154163175922	0.15228395303117498	1.6973509799495037	0.08322539826706964	-0.019660370508012805	1.4731402960894768	-0.04672625601847352	-0.07246411981245436	1.1901180902337276	-0.035884607063457405	-0.1301856327098017	0.941344549107566	0.010078569953798192	0.318729695218809	1.4732866197129564	-0.07919464242922715	0.3560094564428853	1.193872377109399	-0.08535946697843362	0.4036240882598048	0.9470173346270291	-0.06853627005424566
4	0.08	0.13227990916254723	0.9736617334252677	-0.04670775425380352	0.02683537060447449	0.9569883548687155	-0.04045042261441814	0.010727884561081674	0.5202877603660627	-0.07782572958435288	0.0011822146188226932	0.09382773095408081	-0.08544538724740566	-0.004711261477527524	0.04323034238578979	0.11208100273299185	-0.05461720568643779	0.041851645107592546	0.055906863436236305	0.009532964336827725	0.04693188232072629	-0.12740673099033742	0.23736997945749116	0.9530877251549066	-0.05429436715480595	0.24013625066613295	0.5182621556016128	-0.11151917757568455	0.24340799927824525	0.09566653155094486	-0.11104946416263138	0.28621711632360325	0.0408318077834051	0.06649875623768695	0.32079602047658917	0.03860839915740222	0.010103648312234828	0.23001867086735608	0.049348250596714466	-0.1417436547792205	0.14573655162980678	1.5774379556690534	-0.055668813668747374	0.1496547833883859	1.8184799005575443	-0.019248076313774946	0.1550939784313805	1.6972656840543148	0.06243694273748182	-0.017426311709520224	1.4715300567516176	-0.04466081286609674	-0.07060142241804439	1.1871351504834233	-0.03971221551539715	-0.13442503442622245	0.9381629464561317	0.0005400745661753685	0.3168799488476	1.4698753149545016	-0.08814178241089711	0.35359828762251055	1.1884810767281926	-0.08917947409044089	0.40259670147588966	0.9382892660956804	-0.06762304261057621
5	0.1	0.1343203915634003	0.9701027329193785	-0.04578343521876404	0.026286248578132203	0.956723397199161	-0.040060301432984884	0.01322799627178177	0.5199054122197592	-0.06780655211668664	0.0023474999671328676	0.09294428109926615	-0.08663778990024917	-0.0015666684462658457	0.04142637605650404	0.08541318242598622	-0.056263635657708706	0.04437253321895238	0.03183699956880576	0.010088339497708649	0.04901663301432544	-0.12241668050202287	0.24090836248611996	0.9537739595209986	-0.05697468782307879	0.24200110288031018	0.5182388080517392	-0.10295910795495324	0.24553518081811426	0.09523999984268637	-0.1087252280324431	0.28960328030393867	0.04040305373210091	0.048263410101239544	0.32851299009149365	0.04297182634990917	-0.015110450916092758	0.23197631982215602	0.04993365744363169	-0.14291749755031458	0.14666455940059275	1.5801406810538907	-0.057651410717176416	0.1461635613446654	1.8246558151259393	-0.018923777832436012	0.15257823731457912	1.6956559731110752	0.07295605549775971	-0.019928203107743094	1.471522556634366	-0.05772643876896718	-0.07080882322635255	1.1899311259105572	-0.03682381351141467	-0.1308274521951177	0.9409212642338466	0.010795168686498016	0.31541000032137806	1.4729298665181023	-0.08187724095834135	0.35745156032215036	1.192658550459535	-0.08421322073743305	0.40522313165105484	0.9435958251030266	-0.06745025622641224
6	0.12	0.13424040498203335	0.9721351903253517	-0.047523783571071516	0.026429750044847794	0.9588439131619384	-0.03960869631945764	0.01452851633356134	0.5198200777199439	-0.07161883255075856	0.0026535512922021857	0.09163820057214984	-0.08087597883304373	0.0015889240219152017	0.040461210432801556	0.09149192885508398	-0.05428264665233176	0.04487156952478805	0.03354567978765571	0.012068503549254934	0.049354672236336876	-0.12062869983026966	0.2417193500530421	0.955791802803631	-0.06167457474602065	0.240073019454585	0.5208686071308205	-0.10628709866642748	0.24652383948832224	0.0954830887587924	-0.10998465637551881	0.28542672713763	0.04099393117428131	0.05662623688302537	0.328485650166955	0.044877633175249065	-0.00414225546599305	0.23487227900886315	0.05022912915593175	-0.14436381937444853	0.14551265778113082	1.5769707801789827	-0.05119981591892431	0.14590717200289108	1.8214787475712697	-0.02285076178164776	0.1509662786305355	1.6943807233129484	0.0787497080709431	-0.020581677327658875	1.4712346094354445	-0.044919133844934026	-0.07202836531440168	1.1918362591058793	-0.03746660824134493	-0.1320893794654119	0.9432283932316581	0.009558462657167456	0.3183804805348384	1.4740578906165966	-0.07736260634795686	0.3585832823582034	1.1942153629678618	-0.0827321514856074	0.40337794936978255	0.9470067254765534	-0.06655614630846407
7	0.14	0.1357285319682354	0.9707444417132248	-0.04852186447893074	0.028155150962973767	0.9602650577537354	-0.04097836415907545	0.012149723997543813	0.5220893198062174	-0.07037494212768967	0.00274633036480378	0.09201126168699272	-0.08044192826083789	-0.0006426857557090675	0.041165193775935124	0.09199802433102068	-0.056831430014964116	0.042507749828794524	0.0339875751842618	0.01230751015463282	0.0481952394339168	-0.11848962178533261	0.24193649760268476	0.9557112302533065	-0.05812751943925556	0.24295299789692262	0.5202489943603933	-0.10205097915413822	0.24585814781062304	0.09586117054878203	-0.11367037696457193	0.28947370654614335	0.03803088892088086	0.04821511507555158	0.3311239057588106	0.043569404524110934	-0.01190902312058403	0.23320726796614796	0.05208714356231929	-0.14692880555700832	0.14505231024635312	1.5798148528521705	-0.06090541307041694	0.1458425195458263	1.8252145741675785	-0.02579502729496241	0.15007451327397095	1.6960309880150557	0.07924626526627138	-0.02044681547217471	1.4716129041530586	-0.048497887899293386	-0.07063864813157635	1.1897420698756074	-0.037797063524725755	-0.1288213019025544	0.9402592346659281	0.011476472946167673	0.31934071021466304	1.4729830092346619	-0.07801103049095541	0.3566401647553334	1.1924690117371972	-0.0826865612616647	0.40463855724622594	0.9470760487275673	-0.06488421852773435
